<?xml version="1.0" encoding="UTF-8"?>
<svg width="1200pt" height="1200pt" version="1.1" viewBox="0 0 1200 1200" xmlns="http://www.w3.org/2000/svg">
 <path fill="white" d="m916.5 491.1-309.3-38.703 200.1-267c16.195-20.875 20.773-48.516 12.164-73.5-8.6055-24.98-29.23-43.938-54.852-50.41-25.617-6.4727-52.773 0.41406-72.215 18.312l-459.9 436.5c-16.941 15.746-27.172 37.414-28.562 60.5-1.3945 23.09 6.1562 45.828 21.082 63.5 14.926 17.668 36.082 28.914 59.082 31.398l334.8 39.602-228.9 319.5c-48.602 64.5 44.699 147.3 103.2 90l476.1-476.1c16.238-15.961 25.828-37.484 26.828-60.234s-6.6602-45.031-21.438-62.355c-14.773-17.328-35.57-28.406-58.191-31.008z"/>
</svg>
