<?xml version="1.0" encoding="UTF-8"?>
<svg width="1200pt" height="1200pt" version="1.1" viewBox="0 0 1200 1200" xmlns="http://www.w3.org/2000/svg">
 <path fill="white"  d="m600 60c298.09 0.33594 539.66 241.91 540 540 0 298.23-241.77 540-540 540s-540-241.77-540-540 241.77-540 540-540zm-0.13672 120c-231.82 0-419.86 188.04-419.86 420s188.04 420 420 420 420-188.04 420-419.86c-0.25781-227.09-180.46-412.02-405.7-419.88zm180.14 570c33.137 0 60 26.863 60 60 0 30.77-23.164 56.129-53.004 59.598l-6.9961 0.40234h-360c-33.137 0-60-26.863-60-60 0-30.77 23.164-56.129 53.004-59.598l6.9961-0.40234zm-381.21-346.07 21.172 21.258 21.258-21.258c23.43-23.43 61.418-23.43 84.852 0 23.43 23.434 23.43 61.422 0 84.852l-21.258 21.258 21.258 21.172c23.43 23.43 23.43 61.418 0 84.852-23.434 23.43-61.422 23.43-84.852 0l-21.258-21.172-21.172 21.172c-23.43 23.43-61.418 23.43-84.852 0-23.43-23.434-23.43-61.422 0-84.852l21.129-21.215-21.129-21.215c-23.43-23.43-23.43-61.418 0-84.852 23.434-23.43 61.422-23.43 84.852 0zm360 0 21.176 21.188 21.254-21.188c23.43-23.43 61.418-23.43 84.852 0 23.43 23.434 23.43 61.422 0 84.852l-21.207 21.176 21.207 21.254c23.43 23.43 23.43 61.418 0 84.852-23.434 23.43-61.422 23.43-84.852 0l-21.254-21.207-21.176 21.207c-23.43 23.43-61.418 23.43-84.852 0-23.43-23.434-23.43-61.422 0-84.852l21.188-21.254-21.188-21.176c-23.43-23.43-23.43-61.418 0-84.852 23.434-23.43 61.422-23.43 84.852 0z" fill-rule="evenodd"/>
</svg>
