<?xml version="1.0" encoding="UTF-8"?>
<svg width="1200pt" height="1200pt" version="1.1" viewBox="0 0 1200 1200" xmlns="http://www.w3.org/2000/svg">
 <path d="m600.66 18.281c-320.81 0-581.48 260.68-581.48 581.48s260.68 581.48 581.48 581.48 581.48-260.68 581.48-581.48c0.046875-320.81-260.63-581.48-581.48-581.48zm247.78 855.98c-10.266 9.375-22.734 14.25-35.625 14.25-13.359 0-26.719-5.8125-36.562-15.609l-0.46875-0.46875-175.13-182.72-175.55 183.14c-9.7969 9.7969-23.156 15.609-36.562 15.609-12.938 0-25.406-4.9219-35.203-13.828l-0.46875-0.46875c-9.7969-9.375-15.609-22.266-15.609-36.094-0.46875-13.828 4.9219-26.719 14.25-36.562l178.22-186.28-178.22-186.28c-9.375-9.7969-14.719-22.734-14.25-36.562 0.46875-13.828 5.8125-26.297 15.609-36.094 20.484-19.594 53.016-18.703 72.609 1.3594l174.66 182.72 175.13-182.72c19.594-20.484 52.125-20.953 72.609-1.3594 9.7969 9.375 15.609 22.266 15.609 36.094 0.46875 13.828-4.9219 26.719-14.25 36.562l-178.22 185.81 178.69 186.71c19.641 20.672 18.75 53.203-1.2656 72.797z"/>
</svg>
