<?xml version="1.0" encoding="UTF-8"?>
<svg width="1200pt" height="1200pt" version="1.1" viewBox="0 0 1200 1200" xmlns="http://www.w3.org/2000/svg">
 <path fill="white" d="m1051.9 955.92-425.88-742.08c-5.5195-9.4805-15.238-15.121-26.039-15.121s-20.52 5.6406-26.039 15.121l-425.88 742.08c-5.3984 9.4805-5.3984 20.879 0.12109 30.359 5.3984 9.4805 15.121 15 25.922 15h851.76c10.801 0 20.52-5.5195 25.922-15 5.5117-9.4766 5.5117-20.879 0.10938-30.359zm-423.72-190.92c0 15.84-12.719 28.68-28.199 28.68s-28.199-12.84-28.199-28.68v-1.1992l-25.441-255.72v-1.3203l-1.3203-12.48c0-30.719 24.602-55.68 54.961-55.68 5.3984 0 10.559 0.71875 15.602 2.2812 16.32 4.918 29.52 17.281 35.641 33.48 2.3984 6.1211 3.6016 12.602 3.7188 19.32zm-28.199 188.04c-28.801 0-52.199-23.641-52.199-52.559 0-29.039 23.398-52.68 52.199-52.68 28.68 0 52.082 23.641 52.082 52.68 0 28.918-23.402 52.559-52.082 52.559z"/>
</svg>
