<?xml version="1.0" encoding="UTF-8"?>
<svg width="1200pt" height="1200pt" version="1.1" viewBox="0 0 1200 1200" xmlns="http://www.w3.org/2000/svg">
 <path fill="white" d="m896.93 302.93c-68.715-68.734-159.14-111.51-255.86-121.05-96.719-9.5352-193.75 14.762-274.57 68.75-80.816 53.984-140.41 134.32-168.63 227.33-28.219 93-23.32 192.91 13.867 282.7 37.188 89.797 104.36 163.91 190.07 209.73 85.711 45.82 184.66 60.5 279.98 41.543 95.324-18.957 181.12-70.383 242.78-145.51 61.656-75.125 95.355-169.31 95.355-266.5-0.039062-111.39-44.277-218.2-123-297zm-267 297c0.078125 7.9805-3.0586 15.656-8.6992 21.297-5.6445 5.6445-13.32 8.7812-21.301 8.7031h-159.6c-10.715 0-20.621-5.7188-25.98-15-5.3594-9.2852-5.3594-20.719 0-30 5.3594-9.2852 15.266-15 25.98-15h129.6v-193.8c0-10.719 5.7188-20.621 15-25.98s20.719-5.3594 30 0 15 15.262 15 25.98z"/>
</svg>
