<?xml version="1.0" encoding="UTF-8"?>
<svg width="1200pt" height="1200pt" version="1.1" viewBox="0 0 1200 1200" xmlns="http://www.w3.org/2000/svg">
 <path fill="white"  d="m1058.4 30h-916.8c-62.398 0-111.6 50.398-111.6 111.6v915.6c0 62.398 50.398 111.6 111.6 111.6h915.6c62.398 0 111.6-50.398 111.6-111.6l-0.003907-915.6c1.1992-61.203-49.199-111.6-110.4-111.6zm-447.6 943.2c-43.199 0-78-34.801-78-78s34.801-78 78-78 78 34.801 78 78c-1.1992 43.199-36 78-78 78zm187.2-397.2c-30 40.801-61.199 62.398-84 78-26.398 18-36 26.398-39.602 67.199-1.1992 19.199-18 32.398-36 32.398h-55.199c-20.398 0-37.199-18-36-39.602 7.1992-97.199 45.602-132 92.398-164.4 19.199-14.398 36-26.398 54-50.398 18-25.199 20.398-57.602 4.8008-87.602-9.6016-19.199-36-52.801-98.398-52.801-81.602 0-105.6 50.398-112.8 91.199-2.3984 18-18 30-34.801 30h-56.398c-22.801 0-39.602-19.199-36-40.801 15.602-105.6 92.398-207.6 240-207.6 94.801 0 172.8 45.602 212.4 122.4 38.402 74.406 32.402 158.41-14.398 222.01z"/>
</svg>
