<?xml version="1.0" encoding="UTF-8"?>
<svg width="1200pt" height="1200pt" version="1.1" viewBox="0 0 1200 1200" xmlns="http://www.w3.org/2000/svg">
 <path d="m926.4 356.4h-434.4c-48-32.398-104.4-51.602-166.8-51.602-163.2 0-295.2 132-295.2 295.2 0 163.2 132 295.2 295.2 295.2 62.398 0 118.8-19.199 166.8-51.602h434.4c134.4 0 243.6-109.2 243.6-243.6 0-134.39-109.2-243.59-243.6-243.59zm-843.6 243.6c0-134.4 109.2-242.4 242.4-242.4 134.4 0 242.4 109.2 242.4 242.4s-109.2 242.4-242.4 242.4-242.4-108-242.4-242.4zm843.6 190.8h-375.6c43.199-51.602 70.801-117.6 70.801-190.8s-26.398-139.2-70.801-190.8h375.6c105.6 0 190.8 85.199 190.8 190.8-0.003906 105.6-85.203 190.8-190.8 190.8z"/>
 <path d="m949.2 490.8c-10.801-10.801-26.398-10.801-37.199 0l-72 72-72-72c-10.801-10.801-26.398-10.801-37.199 0s-10.801 26.398 0 37.199l72 72-72 72c-10.801 10.801-10.801 26.398 0 37.199 4.8008 4.8008 12 7.1992 19.199 7.1992s13.199-2.3984 19.199-7.1992l72-72 72 72c4.8008 4.8008 12 7.1992 19.199 7.1992 7.1992 0 13.199-2.3984 19.199-7.1992 10.801-10.801 10.801-26.398 0-37.199l-72-72 72-72c7.2031-10.801 7.2031-27.602-2.3984-37.199z"/>
</svg>
