<?xml version="1.0" encoding="UTF-8"?>
<svg width="1200pt" height="1200pt" version="1.1" viewBox="0 0 1200 1200" xmlns="http://www.w3.org/2000/svg">
 <path d="m852 276c-70.801-0.007812-139.63 23.316-195.84 66.359h-375c-45.195 0-89.594 11.91-128.72 34.535-39.125 22.621-71.602 55.152-94.148 94.324-22.551 39.168-34.379 83.586-34.293 128.78 0 45.141 11.883 89.488 34.453 128.58 22.57 39.094 55.035 71.559 94.125 94.129 39.094 22.57 83.441 34.453 128.58 34.453h375.48c54.762 41.969 121.49 65.359 190.46 66.77 68.977 1.4062 136.61-19.238 193.04-58.934 56.43-39.695 98.715-96.367 120.7-161.76 21.984-65.398 22.52-136.11 1.5273-201.82-20.996-65.723-62.418-123.03-118.24-163.57-55.82-40.543-123.13-62.207-192.12-61.84zm-408 271.68-134.28 126.72c-4.8867 4.6484-11.375 7.2266-18.117 7.2031h-0.96094c-7.0625-0.21875-13.73-3.293-18.48-8.5234l-54.602-58.801v0.003906c-4.1133-4.4375-5.5508-10.734-3.7656-16.516 1.7852-5.7852 6.5195-10.176 12.422-11.523 5.8984-1.3438 12.07 0.5625 16.184 4.9961l49.559 53.398 129.36-121.68c3.1289-3.7383 7.7148-5.9453 12.59-6.0547 4.8711-0.11328 9.5586 1.8828 12.852 5.4766 3.2969 3.5898 4.8828 8.4297 4.3516 13.273-0.52734 4.8477-3.1211 9.2266-7.1133 12.023zm408 320.76c-71.16-0.16016-139.34-28.566-189.57-78.98-50.223-50.41-78.375-118.7-78.27-189.86 0.10547-71.16 28.461-139.37 78.836-189.63 50.375-50.262 118.64-78.465 189.8-78.41 71.16 0.050781 139.39 28.355 189.68 78.691 50.301 50.336 78.555 118.59 78.555 189.75-0.09375 71.27-28.488 139.58-78.941 189.92-50.449 50.34-118.83 78.582-190.1 78.52z"/>
</svg>
