<?xml version="1.0" encoding="UTF-8"?>
<svg width="1200pt" height="1200pt" version="1.1" viewBox="0 0 1200 1200" xmlns="http://www.w3.org/2000/svg">
 <path d="m600.66 18.281c-320.81 0-581.48 260.68-581.48 581.48s260.68 581.48 581.48 581.48 581.48-260.68 581.48-581.48c0.046875-320.81-260.63-581.48-581.48-581.48zm336.42 410.81-424.22 443.81c-9.7969 9.7969-23.156 15.609-36.562 15.609-12.938 0-25.406-4.9219-34.734-13.359l-214.31-195.19c-20.484-19.172-21.844-51.234-3.5625-72.188 19.172-20.953 51.703-22.266 72.609-3.5625l177.32 161.29 389.02-407.29c19.594-20.484 52.125-20.953 72.609-1.3594 20.578 19.219 21.469 51.75 1.8281 72.234z"/>
</svg>
