<svg version="1.1" viewBox="0.0 0.0 96.0 96.0" fill="none" stroke="none" stroke-linecap="square" stroke-miterlimit="10" xmlns:xlink="http://www.w3.org/1999/xlink" xmlns="http://www.w3.org/2000/svg"><clipPath id="g30627eb39c4_0_5.0"><path d="m0 0l96.0 0l0 96.0l-96.0 0l0 -96.0z" clip-rule="nonzero"/></clipPath><g clip-path="url(#g30627eb39c4_0_5.0)"><path fill="#000000" fill-opacity="0.0" d="m7.3175855 13.0236225l78.64567 0l0 73.88976l-78.64567 0z" fill-rule="evenodd"/><path fill="#ffffff" d="m37.269325 44.999756l7.21875 0q5.46875 -0.046875 8.671875 -2.828125q3.203125 -2.78125 3.203125 -8.0625q0 -5.078123 -2.671875 -7.874998q-2.65625 -2.8125 -8.125 -2.8125q-4.78125 0 -7.859375 2.765625q-3.078125 2.75 -3.078125 7.187498l-11.859375 0q0 -5.468748 2.90625 -9.953123q2.90625 -4.5 8.09375 -7.015625q5.203125 -2.515625 11.65625 -2.515625q10.640625 0 16.71875 5.359375q6.078125 5.34375 6.078125 14.859373q0 4.78125 -3.0625 9.015625q-3.046875 4.21875 -7.875 6.375q5.859375 2.0 8.90625 6.296875q3.0625 4.296875 3.0625 10.25q0 9.5625 -6.578125 15.234375q-6.5625 5.671875 -17.25 5.671875q-10.265625 0 -16.8125 -5.46875q-6.53125 -5.484375 -6.53125 -14.5625l11.859375 0q0 4.6875 3.140625 7.625q3.15625 2.921875 8.484375 2.921875q5.515625 0 8.6875 -2.921875q3.171875 -2.9375 3.171875 -8.5q0 -5.609375 -3.328125 -8.640625q-3.3125 -3.03125 -9.84375 -3.03125l-6.984375 0l0 -9.375z" fill-rule="nonzero"/></g></svg>