<svg version="1.1" viewBox="0.0 0.0 96.0 96.0" fill="none" stroke="none" stroke-linecap="square" stroke-miterlimit="10" xmlns:xlink="http://www.w3.org/1999/xlink" xmlns="http://www.w3.org/2000/svg"><clipPath id="g30627eb39c4_0_1.0"><path d="m0 0l96.0 0l0 96.0l-96.0 0l0 -96.0z" clip-rule="nonzero"/></clipPath><g clip-path="url(#g30627eb39c4_0_1.0)"><path fill="#000000" fill-opacity="0.0" d="m7.3175855 13.0236225l78.64567 0l0 73.88976l-78.64567 0z" fill-rule="evenodd"/><path fill="#ffffff" d="m71.34745 85.968506l-47.796875 0l0 -8.15625l23.671875 -25.828125q5.125 -5.71875 7.296875 -9.546875q2.1875 -3.828125 2.1875 -7.6875q0 -5.078123 -2.859375 -8.203123q-2.859375 -3.125 -7.6875 -3.125q-5.765625 0 -8.9375 3.515625q-3.171875 3.515625 -3.171875 9.609373l-11.875 0q0 -6.484373 2.953125 -11.687498q2.953125 -5.203125 8.4375 -8.078125q5.5 -2.890625 12.6875 -2.890625q10.34375 0 16.328125 5.203125q5.984375 5.203125 5.984375 14.390623q0 5.3125 -3.0 11.15625q-3.0 5.828125 -9.84375 13.25l-17.375 18.609375l33.0 0l0 9.46875z" fill-rule="nonzero"/></g></svg>