<?xml version="1.0" encoding="utf-8"?>
<!-- Generator: Adobe Illustrator 27.0.0, SVG Export Plug-In . SVG Version: 6.00 Build 0)  -->
<svg version="1.1" id="Layer_1" xmlns="http://www.w3.org/2000/svg" xmlns:xlink="http://www.w3.org/1999/xlink" x="0px" y="0px"
	 viewBox="0 0 88.3 129.1" style="enable-background:new 0 0 88.3 129.1;" xml:space="preserve">
<style type="text/css">
	.st0{fill-rule:evenodd;clip-rule:evenodd;fill:url(#SVGID_1_);}
	.st1{fill:url(#SVGID_00000153668851806515859440000015795906300361414272_);}
	.st2{fill:url(#SVGID_00000018232018730221810100000004972763802565635981_);}
	.st3{fill:url(#SVGID_00000145055177679921998680000016693177420244191131_);}
	.st4{fill:url(#SVGID_00000043453347879300517070000018371305552319432603_);}
	.st5{fill:url(#SVGID_00000053533126919959600540000013734260381722114208_);}
	.st6{fill:url(#SVGID_00000116201558945394660840000016114282400740398779_);}
	.st7{fill:url(#SVGID_00000041264035743610897250000014141589203111475869_);}
	.st8{fill:url(#SVGID_00000070808307628522953750000012410735471710908081_);}
	.st9{fill:url(#SVGID_00000152987273166783403070000011959428942358922943_);}
</style>
<g>
	
		<linearGradient id="SVGID_1_" gradientUnits="userSpaceOnUse" x1="123.0337" y1="527.5911" x2="7.14" y2="635.2071" gradientTransform="matrix(1 0 0 1 0 -495.3865)">
		<stop  offset="0.5805" style="stop-color:#3EC6F3;stop-opacity:0"/>
		<stop  offset="1" style="stop-color:#3EC6F3"/>
	</linearGradient>
	<path class="st0" d="M88.3,0c0,0-0.6,1.4-2,3.9c-5,9-19.8,32.6-51.7,60.5c-40.9,35.8-34.2,64.5-34.2,64.5h87.9V0z"/>
	<g>
		<g>
			
				<linearGradient id="SVGID_00000043455096372608589010000017493685529213971365_" gradientUnits="userSpaceOnUse" x1="43.506" y1="85.0807" x2="43.506" y2="207.2497" gradientTransform="matrix(1 0 0 -1 0 214)">
				<stop  offset="0" style="stop-color:#50C9EF"/>
				<stop  offset="1" style="stop-color:#50C9EF;stop-opacity:0.6"/>
			</linearGradient>
			<path style="fill:url(#SVGID_00000043455096372608589010000017493685529213971365_);" d="M0.4,128.9c-0.3-6.4,1.4-12.7,3.6-18.7
				c2.3-6,5.4-11.6,8.9-16.9C20,82.7,29.2,73.6,38.4,65c4.7-4.3,9.4-8.5,13.8-13c4.5-4.4,8.7-9.1,12.8-13.9s7.9-9.9,11.5-15
				c3.7-5.1,7.1-10.5,10.1-16l0.1,0.1c-2.9,5.7-6.1,11.1-9.7,16.4c-3.5,5.3-7.3,10.4-11.3,15.3S57.4,48.5,52.9,53
				s-9.2,8.8-13.8,13.1s-9.2,8.7-13.6,13.3c-4.3,4.6-8.4,9.5-12,14.7s-6.7,10.7-9.1,16.6c-2.4,5.8-4.2,12-4.1,18.4L0.4,128.9z"/>
		</g>
		<g>
			
				<linearGradient id="SVGID_00000159434774652923747510000013924609272531705246_" gradientUnits="userSpaceOnUse" x1="43.6323" y1="85.1" x2="43.6323" y2="199.6084" gradientTransform="matrix(1 0 0 -1 0 214)">
				<stop  offset="0" style="stop-color:#50C9EF"/>
				<stop  offset="1" style="stop-color:#50C9EF;stop-opacity:0.6"/>
			</linearGradient>
			<path style="fill:url(#SVGID_00000159434774652923747510000013924609272531705246_);" d="M0.4,128.9c-0.2-3,0.2-6.1,0.9-9.1
				s1.7-5.9,2.9-8.7c2.4-5.7,5.5-11,9.1-16c7.2-10,16.3-18.3,25.4-26.4c4.6-4,9.2-7.9,13.7-12s8.7-8.4,12.7-12.9
				c4-4.5,7.9-9.2,11.5-14.1c3.7-4.8,7-9.9,10.2-15.1l0.1,0.1C84,20,80.7,25.2,77.2,30.1c-3.5,5-7.3,9.7-11.3,14.3s-8.2,9-12.7,13.1
				c-4.4,4.1-9.1,8.1-13.6,12.1c-4.6,4-9.1,8-13.4,12.3s-8.4,8.8-12,13.7c-3.6,4.9-6.8,10.1-9.3,15.6c-2.4,5.5-4.3,11.5-4.3,17.6
				L0.4,128.9z"/>
		</g>
		<g>
			
				<linearGradient id="SVGID_00000119091842512400272340000010082012658430263425_" gradientUnits="userSpaceOnUse" x1="43.6325" y1="85" x2="43.6325" y2="191.8493" gradientTransform="matrix(1 0 0 -1 0 214)">
				<stop  offset="0" style="stop-color:#50C9EF"/>
				<stop  offset="1" style="stop-color:#50C9EF;stop-opacity:0.6"/>
			</linearGradient>
			<path style="fill:url(#SVGID_00000119091842512400272340000010082012658430263425_);" d="M0.4,128.9c-0.2-2.9,0.2-5.9,1-8.7
				c0.7-2.9,1.8-5.6,3-8.3c2.5-5.4,5.7-10.3,9.3-15C21,87.6,30,79.9,39,72.5c4.5-3.7,9.1-7.3,13.5-11c4.4-3.7,8.6-7.8,12.6-11.9
				c4-4.2,7.9-8.5,11.5-13.1c3.7-4.5,7.1-9.2,10.2-14.1l0.1,0.1c-2.9,5-6.2,9.9-9.8,14.5c-3.5,4.6-7.3,9.1-11.3,13.4
				s-8.2,8.3-12.6,12.1c-4.4,3.8-8.9,7.5-13.5,11.2c-4.5,3.7-9,7.4-13.3,11.3s-8.4,8.1-12,12.7c-3.7,4.5-6.9,9.4-9.4,14.6
				S0.5,123.2,0.6,129L0.4,128.9z"/>
		</g>
		<g>
			
				<linearGradient id="SVGID_00000144306141969629883120000012809724259781866137_" gradientUnits="userSpaceOnUse" x1="43.5858" y1="85.1" x2="43.5858" y2="184.292" gradientTransform="matrix(1 0 0 -1 0 214)">
				<stop  offset="0" style="stop-color:#50C9EF"/>
				<stop  offset="1" style="stop-color:#50C9EF;stop-opacity:0.6"/>
			</linearGradient>
			<path style="fill:url(#SVGID_00000144306141969629883120000012809724259781866137_);" d="M0.4,128.9c-0.2-2.8,0.3-5.6,1-8.3
				c0.8-2.7,1.9-5.3,3.1-7.9c2.5-5,5.8-9.7,9.5-14c7.3-8.6,16.3-15.6,25.1-22.4c4.5-3.3,9-6.6,13.3-10.1c4.4-3.4,8.5-7.1,12.5-11
				c4-3.8,7.8-7.9,11.5-12.1s7.1-8.6,10.3-13.2l0.1,0.1c-3,4.7-6.3,9.2-9.9,13.5C73.4,48,69.6,52.1,65.6,56
				c-7.9,8-16.9,14.7-25.8,21.4C31,84.1,22.1,91,14.7,99.4c-3.7,4.2-7,8.7-9.6,13.6S0.4,123.3,0.4,128.9L0.4,128.9z"/>
		</g>
		<g>
			
				<linearGradient id="SVGID_00000018922066939597153050000009248859190286289026_" gradientUnits="userSpaceOnUse" x1="43.636" y1="85.1" x2="43.636" y2="176.6366" gradientTransform="matrix(1 0 0 -1 0 214)">
				<stop  offset="0" style="stop-color:#50C9EF"/>
				<stop  offset="1" style="stop-color:#50C9EF;stop-opacity:0.6"/>
			</linearGradient>
			<path style="fill:url(#SVGID_00000018922066939597153050000009248859190286289026_);" d="M0.4,128.9c-0.2-2.7,0.3-5.4,1.1-8
				s2-5,3.2-7.4c2.6-4.7,6-9,9.7-13c7.4-7.9,16.2-14.2,25-20.4c4.4-3,8.8-6,13.1-9.2c4.3-3.1,8.4-6.5,12.4-10s7.8-7.2,11.5-11.1
				c3.7-3.8,7.1-7.9,10.4-12.2l0.1,0.1c-3,4.4-6.4,8.6-10,12.6s-7.4,7.8-11.3,11.4C57.8,69,48.9,75.1,40.1,81.2s-17.5,12.3-25,20
				c-3.7,3.8-7.1,8-9.8,12.6c-1.3,2.3-2.5,4.7-3.4,7.2s-1.5,5.2-1.4,7.8L0.4,128.9z"/>
		</g>
		<g>
			
				<linearGradient id="SVGID_00000170263748034969486430000013633885574911148957_" gradientUnits="userSpaceOnUse" x1="43.5884" y1="85.1" x2="43.5884" y2="168.9833" gradientTransform="matrix(1 0 0 -1 0 214)">
				<stop  offset="0" style="stop-color:#50C9EF"/>
				<stop  offset="1" style="stop-color:#50C9EF;stop-opacity:0.6"/>
			</linearGradient>
			<path style="fill:url(#SVGID_00000170263748034969486430000013633885574911148957_);" d="M0.4,128.9c-0.1-1.3,0-2.6,0.2-3.9
				s0.6-2.5,1-3.7c0.9-2.4,2.1-4.7,3.4-7c2.7-4.4,6.2-8.3,9.9-11.9c7.5-7.2,16.2-12.8,24.8-18.4c4.3-2.7,8.7-5.4,12.9-8.3
				c4.3-2.8,8.3-5.9,12.3-9c4-3.2,7.8-6.6,11.4-10.1c3.7-3.5,7.2-7.2,10.4-11.2l0.1,0.1c-3,4.1-6.5,8-10,11.6
				c-3.6,3.7-7.4,7.1-11.3,10.4C57.7,74.1,49,79.6,40.4,85.1s-17.3,11.1-24.8,18c-3.7,3.5-7.2,7.3-10,11.6c-1.4,2.1-2.7,4.4-3.6,6.7
				c-0.9,2.4-1.6,4.9-1.5,7.4L0.4,128.9z"/>
		</g>
		<g>
			
				<linearGradient id="SVGID_00000119813163054960662520000015616950891707001225_" gradientUnits="userSpaceOnUse" x1="43.5889" y1="85.1" x2="43.5889" y2="161.3323" gradientTransform="matrix(1 0 0 -1 0 214)">
				<stop  offset="0" style="stop-color:#50C9EF"/>
				<stop  offset="1" style="stop-color:#50C9EF;stop-opacity:0.6"/>
			</linearGradient>
			<path style="fill:url(#SVGID_00000119813163054960662520000015616950891707001225_);" d="M0.4,128.9c-0.2-2.5,0.4-5,1.4-7.2
				c1-2.3,2.2-4.4,3.6-6.5c2.9-4.1,6.4-7.6,10.1-10.9s7.8-6.1,11.9-8.8c4.1-2.7,8.4-5.2,12.6-7.7c4.3-2.4,8.5-4.8,12.7-7.4
				c4.2-2.5,8.2-5.3,12.1-8.1c3.9-2.9,7.7-5.9,11.4-9.1c3.7-3.2,7.2-6.6,10.5-10.2l0.1,0.1c-3.1,3.8-6.5,7.3-10.1,10.6
				s-7.4,6.5-11.3,9.4c-7.8,6-16.3,10.9-24.8,15.8s-17,9.8-24.5,16.1c-3.8,3.1-7.3,6.6-10.2,10.5c-1.4,2-2.8,4-3.8,6.3
				C1.1,124,0.4,126.4,0.4,128.9L0.4,128.9z"/>
		</g>
		<g>
			
				<linearGradient id="SVGID_00000143593371793336895030000005484266494792096661_" gradientUnits="userSpaceOnUse" x1="43.591" y1="85.1" x2="43.591" y2="153.6837" gradientTransform="matrix(1 0 0 -1 0 214)">
				<stop  offset="0" style="stop-color:#50C9EF"/>
				<stop  offset="1" style="stop-color:#50C9EF;stop-opacity:0.6"/>
			</linearGradient>
			<path style="fill:url(#SVGID_00000143593371793336895030000005484266494792096661_);" d="M0.4,128.9c-0.2-2.4,0.5-4.8,1.6-6.9
				s2.4-4.1,3.8-6c3-3.7,6.6-6.9,10.3-9.8s7.8-5.4,11.8-7.8c4.1-2.4,8.2-4.6,12.4-6.8c4.2-2.1,8.3-4.2,12.4-6.5
				c4.1-2.2,8.1-4.7,12-7.2s7.7-5.3,11.4-8.1c3.7-2.8,7.2-5.9,10.6-9.2l0.1,0.1c-3.2,3.5-6.6,6.6-10.2,9.6s-7.4,5.8-11.2,8.4
				c-7.7,5.3-16.1,9.7-24.4,14s-16.7,8.6-24.2,14.2c-3.8,2.8-7.4,5.8-10.4,9.4c-1.5,1.8-2.9,3.7-4,5.8c-1.1,2.1-1.9,4.3-1.8,6.7
				L0.4,128.9z"/>
		</g>
		<g>
			
				<linearGradient id="SVGID_00000155124630606121564710000005090589162958420113_" gradientUnits="userSpaceOnUse" x1="43.644" y1="85.1" x2="43.644" y2="146.0378" gradientTransform="matrix(1 0 0 -1 0 214)">
				<stop  offset="0" style="stop-color:#50C9EF"/>
				<stop  offset="1" style="stop-color:#50C9EF;stop-opacity:0.6"/>
			</linearGradient>
			<path style="fill:url(#SVGID_00000155124630606121564710000005090589162958420113_);" d="M0.4,128.9c-0.2-2.3,0.7-4.5,1.8-6.5
				s2.6-3.8,4.1-5.5c3.1-3.3,6.8-6.1,10.5-8.7c3.8-2.6,7.7-4.7,11.8-6.8c4-2.1,8.1-4,12.2-5.9S49,91.8,53,89.9s7.9-4.1,11.8-6.3
				c3.9-2.2,7.7-4.6,11.3-7.2c3.7-2.5,7.3-5.2,10.7-8.2l0.1,0.1c-3.2,3.1-6.7,6-10.3,8.6c-3.6,2.7-7.4,5.1-11.2,7.5
				c-7.7,4.7-15.9,8.5-24,12.2c-8.1,3.8-16.3,7.5-23.9,12.3c-3.8,2.4-7.4,5.1-10.6,8.3c-1.6,1.6-3,3.3-4.2,5.2c-1.2,1.9-2.1,4-2,6.3
				L0.4,128.9z"/>
		</g>
	</g>
</g>
</svg>
